<svg id="Capa_1" data-name="Capa 1" xmlns="http://www.w3.org/2000/svg" viewBox="0 0 57.48 43.74"><title>Estrategias</title><path d="M50.46,0H7A7,7,0,0,0,0,7V36.71a7,7,0,0,0,7,7H50.45a7,7,0,0,0,7-7V7a7,7,0,0,0-7-7Zm3.82,36.71a3.82,3.82,0,0,1-3.82,3.82H7a3.82,3.82,0,0,1-3.82-3.82V7A3.82,3.82,0,0,1,7,3.22H50.45A3.82,3.82,0,0,1,54.27,7V36.71Zm0,0"/><path d="M36.25,21.5,50.3,8.9a1.61,1.61,0,1,0-2.15-2.39L28.77,23.9,25,20.53s0,0,0,0a2.44,2.44,0,0,0-.26-.23L9.31,6.49A1.61,1.61,0,1,0,7.17,8.9L21.39,21.61,7.23,34.87a1.61,1.61,0,0,0-.07,2.27,1.64,1.64,0,0,0,1.18.51,1.61,1.61,0,0,0,1.09-.43L23.81,23.77l3.9,3.48a1.6,1.6,0,0,0,2.14,0l4-3.59L48.15,37.24a1.61,1.61,0,0,0,2.27-.06,1.61,1.61,0,0,0-.06-2.27Zm0,0"/></svg>