<svg id="Capa_1" data-name="Capa 1" xmlns="http://www.w3.org/2000/svg" viewBox="0 0 501.8 147.42"><defs><style>.cls-1{font-size:51.96px;font-family:PlayfairDisplay-Bold, Playfair Display;font-weight:700;}.cls-1,.cls-9{fill:#7d0000;}.cls-2{letter-spacing:-0.07em;}.cls-3{letter-spacing:0em;}.cls-4{letter-spacing:-0.01em;}.cls-5{letter-spacing:-0.02em;}.cls-6{letter-spacing:0em;}.cls-7{letter-spacing:-0.01em;}.cls-8{letter-spacing:-0.01em;}</style></defs><title>Estrategias</title><text class="cls-1" transform="translate(61.51 62.27)">ESTR<tspan class="cls-2" x="133.93" y="0">A</tspan><tspan class="cls-3" x="165.06" y="0">TEGIAS </tspan><tspan class="cls-4" x="367.51" y="0">D</tspan><tspan x="407.36" y="0">E</tspan><tspan x="0" y="62.35">INTE</tspan><tspan class="cls-5" x="124.69" y="62.35">R</tspan><tspan class="cls-6" x="159.5" y="62.35">VE</tspan><tspan class="cls-7" x="227.14" y="62.35">N</tspan><tspan x="264.3" y="62.35">C</tspan><tspan class="cls-8" x="300.94" y="62.35">IÓ</tspan><tspan x="360.86" y="62.35">N</tspan></text><text class="cls-1" transform="translate(459.89 107.31) scale(0.58)">®</text><path class="cls-9" d="M17.61,106.84c1.67-3.42,5.43-4,7.72-6.48a6.83,6.83,0,0,1,2-1.55c4.39-2.07,8.9,1.36,9.15,7a19.75,19.75,0,0,1-.35,3.41c-.35,2.66-.6,5.27.43,7.9a21.19,21.19,0,0,1,1.31,9.55c-.34,4.08.2,8,2.75,11.37,1.45,1.94,1.34,4.1.6,6.25-.51,1.49-1.52,2.66-3.19,2.27-1.86-.44-3.46,1.3-5.5.12-1.61-.93-2.55-1.57-1.58-3.4a3.53,3.53,0,0,0,.15-3.08c-2.35-5-.46-10,.35-14.86a45.08,45.08,0,0,0,.06-9.93c-.1-1.91-.57-3.82.08-5.68.56-1.61-.54-2.72-1.35-3.53s-2.37-.6-3.52.06C22.1,108.93,22.11,108.95,17.61,106.84Z"/><path class="cls-9" d="M3.68,0C.14,4.68,2.8,9.29,3.45,14c.86,6.21,4.17,11.85,3.94,18.28a22.84,22.84,0,0,1-.58,4.82C6,40.45,7,43.29,10.27,44.48,14.36,46,17.06,49,20,51.83c.88.87,1.23,2.32,1.7,3.55,1.47,3.88,4.88,6.35,7,9.74,2.62,4.17,4.16,8.61,3.39,13.66-.25,1.65-.63,3.41-2.49,3.15A4.34,4.34,0,0,1,26,78.3c-.32-2-.77-4,.31-6.07.89-1.74-.18-3.52-1.47-4.85a49.1,49.1,0,0,1-7.58-11c-2-3.71-5.44-6.15-9.11-8-5.24-2.71-7.05-7-5.62-12.58a16.9,16.9,0,0,0-.63-10.49C.09,20.86-.08,16.38,0,11.79.08,8.91,0,6,.06,3.15.14.45.87-.14,3.68,0Z"/><path class="cls-9" d="M25.39,85.17c.28,4.92-2.24,9.81-3.45,15-.42,1.81-2.15,1.9-3.5,1.67-1.68-.29-3.14-1.46-2.93-3.34.31-2.72.49-5.75,2.77-7.61,3.5-2.86,2.38-6.49,2.18-10a8.65,8.65,0,0,0-.75-2.72c-.43-1-.41-1.92.6-2.5,1.2-.68,2.2-.2,3,.78C25.32,78.83,25.46,81.68,25.39,85.17Z"/><path class="cls-9" d="M44.69,147.4a2,2,0,0,1-2.44-1.7,2.08,2.08,0,0,1,2.11-2,2.47,2.47,0,0,1,2.34,2.35C46.71,147.38,45.69,147.44,44.69,147.4Z"/></svg>