<svg id="Capa_1" data-name="Capa 1" xmlns="http://www.w3.org/2000/svg" viewBox="0 0 416.43 20"><defs><style>.cls-1{fill:none;stroke:#000;stroke-miterlimit:10;stroke-width:2px;}</style></defs><title>Estrategias</title><path class="cls-1" d="M0,1C14.87,1,14.87,19,29.74,19S44.61,1,59.49,1,74.36,19,89.23,19,104.1,1,119,1s14.87,18,29.74,18S163.58,1,178.45,1s14.87,18,29.74,18S223.07,1,237.94,1s14.87,18,29.75,18S282.56,1,297.43,1s14.87,18,29.75,18S342.05,1,356.92,1s14.88,18,29.75,18S401.55,1,416.43,1"/></svg>