<svg id="Capa_1" data-name="Capa 1" xmlns="http://www.w3.org/2000/svg" viewBox="0 0 44.25 44.25"><title>Estrategias</title><path d="M31.07,0H13.18A13.2,13.2,0,0,0,0,13.18V31.07A13.2,13.2,0,0,0,13.18,44.25H31.07A13.2,13.2,0,0,0,44.25,31.07V13.18A13.2,13.2,0,0,0,31.07,0ZM39.8,31.07a8.73,8.73,0,0,1-8.73,8.73H13.18a8.73,8.73,0,0,1-8.73-8.73V13.18a8.73,8.73,0,0,1,8.73-8.73H31.07a8.73,8.73,0,0,1,8.73,8.73V31.07Z"/><path d="M22.13,10.68A11.44,11.44,0,1,0,33.57,22.13,11.46,11.46,0,0,0,22.13,10.68Zm0,18.44a7,7,0,1,1,7-7A7,7,0,0,1,22.13,29.12Z"/><circle cx="33.59" cy="10.77" r="2.74"/></svg>