<svg width="22" height="169" xmlns="http://www.w3.org/2000/svg">
 <defs>
  <style>.cls-1{fill:none;stroke:#000;stroke-miterlimit:10;stroke-width:2px;}</style>
 </defs>
 <title>Estrategias</title>
 <g>
  <title>background</title>
  <rect fill="none" id="canvas_background" height="171" width="24" y="-1" x="-1"/>
 </g>
 <g>
  <title>Layer 1</title>
  <path stroke="null" id="svg_1" d="m20.941799,-110.052911s-20,14 -20,27.95s20,14 20,27.94s-20,14 -20,27.94s20,14 20,27.94s-20,14 -20,27.95s20,14 20,27.95s-20,14 -20,27.95s20,14 20,27.95s-20,14 -20,28s20,14 20,28" class="cls-1"/>
  <path d="m2.211629,279.719551c0,0.529099 0,0.529099 0,2.116394c0,0.529114 0.947007,2.687012 1.587301,4.232819c0.452753,1.093048 0.711734,3.797333 1.587302,6.349197c0.38396,1.119064 1.043658,2.988098 1.587302,5.291c0.121566,0.514954 0,2.645508 0,4.761917c0,1.058197 -0.156408,3.711426 0,5.291c0.265844,2.684769 0.5291,4.232803 0.5291,4.761902l0.529101,1.058212" id="svg_2" fill-opacity="null" stroke-opacity="null" stroke-width="null" stroke="null" fill="none"/>
  <path d="m23.904751,307.23278c0,0 0.491076,-0.557678 0,-4.761902c-2.397139,-20.522507 -6.080526,-40.847946 -7.936508,-55.555557c-2.169897,-17.195206 -4.003744,-21.711731 -4.761905,-29.629639c-0.406596,-4.246323 -0.5291,-5.820107 -0.5291,-8.465607c0,-1.058205 0,-2.116402 0,-2.6455l0,-0.529106" id="svg_3" fill-opacity="null" stroke-opacity="null" stroke-width="null" stroke="null" fill="none"/>
 </g>
</svg>